{"title":"The Tailor of Panama (2001) Pierce Brosnan (DVDrip)","uid":4369887,"size":735760384,"categoryP":"video","categoryS":"movies","magnet":"?xt=urn:btih:ed3418e3d2a6c87d715d72efa857b3fc38b2160c&amp;dn=The+Tailor+of+Panama+%282001%29+Pierce+Brosnan+%28DVDrip%29&amp;tr=udp%3A%2F%2Ftracker.openbittorrent.com%3A80&amp;tr=udp%3A%2F%2Fopen.demonii.com%3A1337&amp;tr=udp%3A%2F%2Ftracker.coppersurfer.tk%3A6969&amp;tr=udp%3A%2F%2Fexodus.desync.com%3A6969","seeders":11,"leechers":1,"uploader":"Kuthumi","files":-1,"time":1220087967,"description":" &lt;a href=&quot;http://www.imdb.com/title/tt0236784/&quot; rel=&quot;nofollow&quot; target=&quot;_NEW&quot;&gt;http://www.imdb.com/title/tt0236784/&lt;/a&gt;\n\naka The Taylor of Panama (2001) \n\nWith Jamie Lee Curtis and Geoffrey Rush.\n\nElegant thriller with Pierce Brosnan as a British spy, and Jamie Lee Curtis for a change pretending to be an ordinary housewife.\n\nThis is not my rip, I found it on the net and post it because the old torrents here at PB seem to have run out of seeders.\n\nWidescreen 544x222, good stereo\n\nBurn tested, runs well in both my standalone DivX players.\n\nFormat/Info                      : Audio Video Interleave\nFile size                        : 702 MiB\nDuration                         : 1h 45mn\nOveral bit rate                  : 933 Kbps\nWriting application              : VirtualDubMod 1.5.10.1 (build 2366/release)\nWriting library                  : VirtualDubMod build 2366/release\n\nVideo\nFormat                           : MPEG-4 Visual\nFormat profile                   : Streaming Video@L1\nFormat settings, BVOP            : Yes\nFormat settings, QPel            : No\nFormat settings, GMC             : No warppoints\nFormat settings, Matrix          : Default\nCodec ID                         : DX50\nCodec ID/Hint                    : DivX 5\nDuration                         : 1h 45mn\nBit rate                         : 811 Kbps\nWidth                            : 544 pixels\nHeight                           : 222 pixels\nDisplay aspect ratio             : 2.450\nFrame rate                       : 25.000 fps\nResolution                       : 8 bits\nColorimetry                      : 4:2:0\nScan type                        : Progressive\nBits/(Pixel*Frame)               : 0.269\nStream size                      : 610 MiB\nWriting library                  : XviD 1.0.3 (UTC 2004-12-20)\n\nAudio\nFormat                           : MPEG Audio\nFormat version                   : Version 1\nFormat profile                   : Layer 3\nCodec ID                         : 55\nCodec ID/Hint                    : MP3\nDuration                         : 1h 45mn\nBit rate mode                    : Constant\nBit rate                         : 112 Kbps\nChannel(s)                       : 2 channels\nSampling rate                    : 48.0 KHz\nResolution                       : 16 bits\nStream size                      : 84.2 MiB\n","torrent":{"xt":"urn:btih:ed3418e3d2a6c87d715d72efa857b3fc38b2160c","amp;dn":"The+Tailor+of+Panama+%282001%29+Pierce+Brosnan+%28DVDrip%29","amp;tr":["udp%3A%2F%2Ftracker.openbittorrent.com%3A80","udp%3A%2F%2Fopen.demonii.com%3A1337","udp%3A%2F%2Ftracker.coppersurfer.tk%3A6969","udp%3A%2F%2Fexodus.desync.com%3A6969"],"infoHash":"ed3418e3d2a6c87d715d72efa857b3fc38b2160c","infoHashBuffer":{"type":"Buffer","data":[237,52,24,227,210,166,200,125,113,93,114,239,168,87,179,252,56,178,22,12]},"announce":[],"urlList":[]}}